#!OML:ASF H:\Terrain\Patient Classification 1\Terrain2\Thursday\justin.ASF
:FULLY-SPECIFIED
:DEGREES
1167
root 20.0478 20.7317 -10.6665 531.145 -94.9772 551.365
lowerback 6.2761 0.756104 -0.536115
upperback 2.30143 0.952298 2.46727
thorax -1.19828 0.440973 2.77332
lowerneck -13.1002 -0.449853 -8.95847
upperneck 37.5773 -0.394629 2.40703
head 15.4198 -1.58454 2.42409
rclavicle 1.41137e-014 -3.97569e-015
rhumerus -29.6306 -2.19114 -84.8443
rradius 37.2323
rwrist -12.4878
rhand -19.8288 10.2912
rfingers 7.12502
rthumb 6.50507 -19.5889
lclavicle 1.41137e-014 -3.97569e-015
lhumerus -34.7091 11.2046 84.4054
lradius 25.7693
lwrist -3.48784
lhand -14.3375 19.8657
lfingers 7.12502
lthumb 11.8036 49.5131
rfemur -15.6829 -5.43055 21.0262
rtibia 44.603
rfoot -25.6547 -5.42149
rtoes -2.1101
lfemur -14.0942 1.83211 -22.3636
ltibia 28.0065
lfoot -10.9019 -11.0154
ltoes 20.9736
1168
root 20.0223 20.7299 -10.6808 534.524 -95.2412 547.94
lowerback 6.23067 0.583201 -0.498388
upperback 2.30549 0.723998 2.64298
thorax -1.15845 0.324998 2.95094
lowerneck -13.0312 -0.361683 -9.12192
upperneck 37.5997 -0.213324 2.36633
head 15.4025 -1.54111 2.46434
rclavicle -4.57205e-015 3.10104e-014
rhumerus -29.6921 -1.61232 -84.976
rradius 37.3431
rwrist -12.5219
rhand -19.9008 10.4767
rfingers 7.12502
rthumb 6.43557 -19.4056
lclavicle -4.57205e-015 3.10104e-014
lhumerus -34.7321 11.0054 84.6805
lradius 26.1441
lwrist -3.02913
lhand -14.3883 19.5716
lfingers 7.12502
lthumb 11.7547 49.2217
rfemur -15.7601 -5.14708 21.3821
rtibia 44.0672
rfoot -25.8724 -5.19321
rtoes -0.589972
lfemur -14.1136 2.00062 -22.0027
ltibia 28.2246
lfoot -10.4005 -11.6249
ltoes 28.4665
1169
root 19.998 20.7263 -10.69 538.851 -95.5849 543.565
lowerback 6.20068 0.58318 -0.113789
upperback 2.34013 0.743679 2.67082
thorax -1.1028 0.334274 2.7616
lowerneck -13.0517 -0.478444 -8.84521
upperneck 37.6723 -0.414001 2.21205
head 15.4582 -1.60943 2.31786
rclavicle 4.77083e-015 -2.62396e-014
rhumerus -29.7041 -1.83257 -85.0972
rradius 37.321
rwrist -12.6368
rhand -20.2435 10.7959
rfingers 7.12502
rthumb 6.10471 -19.0962
lclavicle 4.77083e-015 -2.62396e-014
lhumerus -34.4731 10.0588 85.0412
lradius 26.4438
lwrist -2.66115
lhand -14.5077 19.6172
lfingers 7.12502
lthumb 11.6395 49.274
rfemur -15.7801 -4.90543 21.8374
rtibia 43.4661
rfoot -26.1416 -4.63078
rtoes 1.47236
lfemur -14.1548 2.12789 -21.5161
ltibia 28.466
lfoot -10.8423 -12.3171
ltoes 23.3476
1170
root 19.9764 20.7117 -10.6945 541.805 -96.0243 540.586
lowerback 6.19562 0.485719 0.204825
upperback 2.35887 0.630482 2.72773
thorax -1.07229 0.277256 2.64895
lowerneck -13.0671 -0.482283 -8.76243
upperneck 37.7796 -0.429229 2.15727
head 15.5161 -1.61691 2.27851
rclavicle -1.07344e-014 -1.03368e-014
rhumerus -29.7506 -1.51957 -85.2154
rradius 37.4299
rwrist -13.074
rhand -20.3932 10.5482
rfingers 7.12502
rthumb 5.96024 -19.3479
lclavicle -1.07344e-014 -1.03368e-014
lhumerus -34.2836 9.35969 85.395
lradius 26.8655
lwrist -2.02957
lhand -14.8571 19.7379
lfingers 7.12502
lthumb 11.3026 49.4134
rfemur -15.8695 -4.92543 22.175
rtibia 42.8662
rfoot -26.3724 -3.94318
rtoes 1.84033
lfemur -14.2519 2.27015 -21.1795
ltibia 28.6431
lfoot -10.7091 -13.1878
ltoes 22.8814
1171
root 19.9489 20.6969 -10.7045 542.352 -96.3282 539.999
lowerback 6.19145 0.344999 0.0753544
upperback 2.33986 0.436452 2.92781
thorax -1.0831 0.17829 2.94289
lowerneck -12.9548 -0.403961 -9.1504
upperneck 37.7901 -0.211492 2.14764
head 15.4834 -1.58572 2.37755
rclavicle 1.45113e-014 3.97569e-015
rhumerus -29.8741 -0.678885 -85.1431
rradius 37.5614
rwrist -13.4212
rhand -20.1684 10.175
rfingers 7.12502
rthumb 6.17726 -19.7149
lclavicle 1.45113e-014 3.97569e-015
lhumerus -34.3414 9.23759 85.7239
lradius 27.4026
lwrist -1.47679
lhand -14.5846 19.6974
lfingers 7.12502
lthumb 11.5654 49.3582
rfemur -15.9377 -4.88702 22.2497
rtibia 42.2995
rfoot -26.4874 -3.32988
rtoes 2.54097
lfemur -14.2279 2.50208 -21.0868
ltibia 28.7089
lfoot -10.5565 -13.9286
ltoes 23.2199
1172
root 19.9152 20.6954 -10.7172 540.2 -96.5359 542.16
lowerback 6.07694 0.312534 -0.332511
upperback 2.32148 0.371118 2.95235
thorax -1.03761 0.145003 3.20341
lowerneck -12.9404 -0.449767 -9.3306
upperneck 37.858 -0.22023 2.10649
head 15.5185 -1.62571 2.39058
rclavicle 2.18663e-015 7.95139e-016
rhumerus -29.9412 -0.518527 -85.0451
rradius 37.3914
rwrist -13.1434
rhand -20.0611 10.2053
rfingers 7.12502
rthumb 6.28087 -19.6816
lclavicle 2.18663e-015 7.95139e-016
lhumerus -34.4072 9.054 85.9131
lradius 27.9325
lwrist -1.1554
lhand -14.0891 19.984
lfingers 7.12502
lthumb 12.0432 49.6175
rfemur -16.0019 -4.7647 21.9744
rtibia 41.7165
rfoot -26.3782 -2.89687
rtoes 3.21162
lfemur -14.1158 2.46391 -21.3155
ltibia 28.7302
lfoot -10.6118 -14.3218
ltoes 23.1804
1173
root 19.8834 20.6855 -10.7229 537.113 -96.755 545.319
lowerback 5.8698 0.317373 -0.713901
upperback 2.33917 0.356566 2.79412
thorax -0.904626 0.137617 3.25602
lowerneck -13.0912 -0.513616 -9.27101
upperneck 38.0342 -0.351439 2.18031
head 15.6522 -1.67036 2.39337
rclavicle -1.72943e-014 1.59028e-015
rhumerus -29.9486 -0.730647 -85.0653
rradius 37.215
rwrist -12.8073
rhand -20.1773 10.3797
rfingers 7.12502
rthumb 6.16861 -19.5105
lclavicle -1.72943e-014 1.59028e-015
lhumerus -34.2164 8.97755 85.9145
lradius 28.2047
lwrist -1.19173
lhand -13.9623 20.1892
lfingers 7.12502
lthumb 12.1654 49.8154
rfemur -16.1494 -4.9117 21.5846
rtibia 41.0621
rfoot -26.0993 -2.83438
rtoes 1.88268
lfemur -14.0828 2.37606 -21.7002
ltibia 28.794
lfoot -10.4141 -14.7508
ltoes 26.0773
1174
root 19.8501 20.6715 -10.7262 537.322 -96.9476 545.038
lowerback 5.7532 0.26008 -0.671059
upperback 2.41402 0.27903 2.76068
thorax -0.757599 0.0967442 3.20222
lowerneck -13.1722 -0.484824 -9.37648
upperneck 38.125 -0.352807 2.40066
head 15.7159 -1.66014 2.5091
rclavicle 1.76918e-014 -1.59028e-014
rhumerus -29.9321 -0.621432 -85.1419
rradius 37.1345
rwrist -12.7387
rhand -20.1921 10.578
rfingers 7.12502
rthumb 6.15432 -19.3126
lclavicle 1.76918e-014 -1.59028e-014
lhumerus -33.9288 9.22439 85.8828
lradius 28.3272
lwrist -1.36261
lhand -13.8155 19.9585
lfingers 7.12502
lthumb 12.307 49.5763
rfemur -16.0425 -4.98003 21.5949
rtibia 40.3155
rfoot -25.8941 -2.45758
rtoes 1.57087
lfemur -13.9393 2.3158 -21.6508
ltibia 28.9066
lfoot -10.7217 -14.646
ltoes 26.1497
1175
root 19.8167 20.6653 -10.7348 539.659 -97.1678 542.579
lowerback 5.72333 0.191896 -0.379564
upperback 2.4446 0.200932 2.79008
thorax -0.704015 0.05751 3.07288
lowerneck -13.1472 -0.460314 -9.33158
upperneck 38.2151 -0.352755 2.4306
head 15.7542 -1.65577 2.51507
rclavicle -1.05356e-014 1.03368e-014
rhumerus -29.9339 -0.498713 -85.2738
rradius 36.8932
rwrist -12.7438
rhand -20.2323 10.8548
rfingers 7.12502
rthumb 6.11559 -19.0369
lclavicle -1.05356e-014 1.03368e-014
lhumerus -33.8023 9.18891 85.908
lradius 28.5695
lwrist -1.17727
lhand -14.1354 19.6492
lfingers 7.12502
lthumb 11.9985 49.2853
rfemur -15.7955 -4.76149 21.8924
rtibia 39.4979
rfoot -25.5946 -1.74361
rtoes 2.72266
lfemur -13.7937 2.05477 -21.2987
ltibia 29.0826
lfoot -11.5202 -13.9704
ltoes 23.3811
1176
root 19.7887 20.6544 -10.7479 540.076 -97.4249 542.105
lowerback 5.76536 0.175124 -0.423092
upperback 2.40225 0.178875 2.78573
thorax -0.769817 0.0476856 3.09443
lowerneck -13.0353 -0.502109 -9.17494
upperneck 38.2255 -0.4359 2.31029
head 15.7387 -1.68622 2.4207
rclavicle -3.97569e-016 1.98785e-014
rhumerus -29.9864 -0.516534 -85.2951
rradius 36.5547
rwrist -12.6895
rhand -20.3008 11.0179
rfingers 7.12502
rthumb 6.0494 -18.8758
lclavicle -3.97569e-016 1.98785e-014
lhumerus -33.6834 8.51565 86.0665
lradius 28.9109
lwrist -0.417129
lhand -14.5795 19.601
lfingers 7.12502
lthumb 11.5703 49.2616
rfemur -15.6422 -4.47387 21.9906
rtibia 38.6253
rfoot -25.0998 -1.29501
rtoes 3.96963
lfemur -13.7481 1.68218 -21.1698
ltibia 29.3006
lfoot -11.8353 -13.6789
ltoes 23.5796
1177
root 19.758 20.6389 -10.7605 538.982 -97.6931 543.131
lowerback 5.7744 0.184086 -0.685345
upperback 2.39451 0.178588 2.75129
thorax -0.783361 0.0473558 3.20698
lowerneck -12.8348 -0.550883 -9.0218
upperneck 38.0667 -0.539775 2.23026
head 15.617 -1.71008 2.33937
rclavicle -3.18055e-015 5.56597e-015
rhumerus -30.0579 -0.628418 -85.2183
rradius 36.2692
rwrist -12.5531
rhand -20.2391 10.8984
rfingers 7.12502
rthumb 6.10901 -18.9935
lclavicle -3.18055e-015 5.56597e-015
lhumerus -33.5222 7.43735 86.3726
lradius 29.4028
lwrist 0.694925
lhand -14.7046 19.792
lfingers 7.12502
lthumb 11.4497 49.4593
rfemur -15.4752 -4.41638 21.8853
rtibia 37.7753
rfoot -24.5326 -1.34951
rtoes 3.6087
lfemur -13.62 1.19144 -21.2603
ltibia 29.4424
lfoot -11.877 -13.6069
ltoes 24.4236
1178
root 19.722 20.6436 -10.771 538.517 -97.9637 543.565
lowerback 5.65468 0.253739 -0.683843
upperback 2.39213 0.27215 2.61814
thorax -0.724446 0.0955203 3.06219
lowerneck -12.5612 -0.62405 -8.70189
upperneck 37.9038 -0.764419 2.22293
head 15.4816 -1.75079 2.24084
rclavicle -2.28602e-015 1.59028e-014
rhumerus -30.1999 -1.07657 -85.1969
rradius 36.0117
rwrist -12.4994
rhand -20.0316 10.7794
rfingers 7.12502
rthumb 6.30931 -19.1067
lclavicle -2.28602e-015 1.59028e-014
lhumerus -33.4247 6.57313 86.4819
lradius 29.8895
lwrist 1.15156
lhand -14.5937 19.8972
lfingers 7.12502
lthumb 11.5566 49.5586
rfemur -15.3302 -4.46552 21.8022
rtibia 37.0716
rfoot -23.728 -1.23185
rtoes 4.87513
lfemur -13.4383 0.644962 -21.2534
ltibia 29.4886
lfoot -12.0752 -13.4978
ltoes 24.0835
1179
root 19.6881 20.6624 -10.7796 539.234 -98.1331 542.828
lowerback 5.59381 0.320735 -0.47728
upperback 2.35789 0.373099 2.55859
thorax -0.730196 0.148348 2.87769
lowerneck -12.4112 -0.702367 -8.67172
upperneck 37.8823 -0.945977 2.32332
head 15.4477 -1.80836 2.24884
rclavicle 9.54166e-015 -9.54166e-015
rhumerus -30.2894 -1.49071 -85.0797
rradius 35.6507
rwrist -12.456
rhand -19.7495 10.8017
rfingers 7.12502
rthumb 6.58161 -19.076
lclavicle 9.54166e-015 -9.54166e-015
lhumerus -33.4624 6.22261 86.496
lradius 30.3681
lwrist 1.21807
lhand -14.3107 19.8346
lfingers 7.12502
lthumb 11.8295 49.4805
rfemur -15.1955 -4.30564 21.8617
rtibia 36.5736
rfoot -22.6113 -0.700076
rtoes 11.009
lfemur -13.2746 0.371876 -21.0147
ltibia 29.5171
lfoot -12.165 -13.7214
ltoes 24.4186
1180
root 19.6554 20.6605 -10.789 538.978 -98.2474 543.1
lowerback 5.52587 0.235219 -0.593832
upperback 2.30873 0.255145 2.627
thorax -0.737244 0.0892752 3.02153
lowerneck -12.3795 -0.648583 -8.9772
upperneck 37.9481 -0.806878 2.37233
head 15.4671 -1.79283 2.34664
rclavicle 2.45499e-014 -1.82882e-014
rhumerus -30.2353 -1.33197 -84.9467
rradius 35.1438
rwrist -12.275
rhand -19.7463 10.8281
rfingers 7.12502
rthumb 6.58472 -19.0495
lclavicle 2.45499e-014 -1.82882e-014
lhumerus -33.5279 6.50716 86.5737
lradius 30.7852
lwrist 1.43148
lhand -14.2033 19.8207
lfingers 7.12502
lthumb 11.9331 49.4606
rfemur -15.1209 -4.47962 21.8909
rtibia 36.3139
rfoot -21.3904 -1.12113
rtoes 14.8344
lfemur -13.1908 0.382198 -20.9773
ltibia 29.5542
lfoot -12.1346 -14.0619
ltoes 25.1836
1181
root 19.621 20.6464 -10.7999 537.384 -98.3211 544.708
lowerback 5.40092 0.118545 -1.00844
upperback 2.27496 0.0810776 2.69107
thorax -0.692674 0.000419748 3.3325
lowerneck -12.3471 -0.538157 -9.20154
upperneck 38.0547 -0.569487 2.30619
head 15.4981 -1.74386 2.39643
rclavicle 3.77691e-015 1.11319e-014
rhumerus -30.1821 -0.85048 -84.9027
rradius 34.5884
rwrist -12.2071
rhand -19.9942 10.877
rfingers 7.12502
rthumb 6.34537 -19.008
lclavicle 3.77691e-015 1.11319e-014
lhumerus -33.2199 7.90334 86.3224
lradius 30.5152
lwrist 0.699622
lhand -14.3197 19.5856
lfingers 7.12502
lthumb 11.8208 49.232
rfemur -15.0089 -5.00156 21.8112
rtibia 36.3111
rfoot -20.4593 -2.24859
rtoes 14.2633
lfemur -13.0502 0.186016 -21.2026
ltibia 29.5438
lfoot -12.3081 -14.0062
ltoes 25.0688
